# xmcd CD database file
#
# Track frame offsets:
#	150
#	11485
#	28385
#	39085
#	53345
#	78760
#	90155
#	104657
#	115960
#	127855
#	141755
#	156160
#	168055
#	179110
#	197705
#	214360
#
# Disc length: 3038 seconds
#
# Revision: 4
# Processed by: cddbd v1.5.2PL0 Copyright (c) Steve Scherf et al.
# Submitted via: CDex 1.51
#
DISCID=ca0bdc10
DTITLE=The Country All Stars - It's Country Time - 1/2
DYEAR=1988
DGENRE=Country
TTITLE0=Six Days On The Road
TTITLE1=Help Me Make It Through The Night
TTITLE2=Tom Dooley
TTITLE3=Look What Love Has Done
TTITLE4=Vaya Con Dios
TTITLE5=Jambalaya
TTITLE6=Saturday's Gone
TTITLE7=Older Men Make Better Lovers
TTITLE8=Tennessee Teardrops
TTITLE9=Take Me Home, Country Roads
TTITLE10=Two Places At Once
TTITLE11=On Top Of Old Smoky
TTITLE12=Some Broken Hearts Never Mend
TTITLE13=Yesterday's Memories
TTITLE14=Trains Come And Go
TTITLE15=O Lonesome Me
EXTD=Delta-Music GmbH, 1988 YEAR: 1988
EXTT0=
EXTT1=
EXTT2=
EXTT3=
EXTT4=
EXTT5=
EXTT6=
EXTT7=
EXTT8=
EXTT9=
EXTT10=
EXTT11=
EXTT12=
EXTT13=
EXTT14=
EXTT15=
PLAYORDER=
